<svg xmlns="http://www.w3.org/2000/svg" id="Tool-Box--Streamline-Carbon" viewBox="0 0 16 16" height="16" width="16"><desc fill="#808080">Tool Box Streamline Icon: https://streamlinehq.com</desc><defs fill="#808080"/><title>tool-box</title><path d="M13.5 4.5h-1.5V3a1 1 0 0 0 -1 -1H5a1 1 0 0 0 -1 1v1.5H2.5a1.5 1.5 0 0 0 -1.5 1.5v7a1 1 0 0 0 1 1h12a1 1 0 0 0 1 -1V6a1.5 1.5 0 0 0 -1.5 -1.5ZM5 3h6v1.5H5Zm9 10H2v-4.5h4v2.5h4v-2.5h4Zm-7 -4.5h2v1.5h-2ZM2 7.5v-1.5a0.5 0.5 0 0 1 0.5 -0.5h11a0.5 0.5 0 0 1 0.5 0.5v1.5Z" fill="#808080" stroke-width="0.5"/><path id="_Transparent_Rectangle_" d="M0 0h16v16H0Z" fill="none" stroke-width="0.5"/></svg>